<svg width="49" height="48" viewBox="0 0 49 48" fill="none" xmlns="http://www.w3.org/2000/svg">
<rect x="0.5" width="48" height="48" rx="8" fill="#151522"/>
<path fill-rule="evenodd" clip-rule="evenodd" d="M19.5007 16.8125H15.1777V30.9792H19.8132C22.4824 30.9792 24.3574 29.8138 24.1882 26.8125C24.1882 24.5528 22.7999 23.9633 22.2878 23.7458C22.2334 23.7227 22.1888 23.7038 22.1569 23.6875C22.1669 23.6824 22.1779 23.6769 22.1899 23.6708C22.5771 23.4758 23.9798 22.7695 23.9798 20.6667C23.9798 19.1693 23.3353 16.8125 19.5007 16.8125ZM32.9902 16.8125H26.8444V18.4792H32.9902V16.8125ZM17.9902 22.6458V19.1562H19.5007C20.666 19.1562 21.1673 19.8138 21.1673 20.9792C21.1673 22.3138 20.5033 22.6458 19.5007 22.6458H17.9902ZM34.5007 25.5104C34.5007 21.6758 32.821 20.3542 30.4902 20.3542C28.3223 20.3542 26.3236 21.6758 26.3236 25.5104V26.3438C26.3236 29.8464 28.3548 31.1875 30.8548 31.1875C32.9015 31.1875 34.043 29.9922 34.3068 29.7161C34.3224 29.6997 34.3349 29.6866 34.3444 29.6771L33.1465 28.0104C33.1389 28.018 33.1312 28.0257 33.1233 28.0336C32.7856 28.3721 32.159 29 30.8548 29C28.8561 29 28.8236 27.1576 28.8236 26.6562H34.5007V25.5104ZM28.6673 24.6771C28.6673 22.6784 29.6764 22.4896 30.1777 22.4896C31.8444 22.4896 31.4798 24.6771 31.4798 24.6771H28.6673ZM17.9902 28.6875V24.8333H20.0215C21.0241 24.8333 21.4928 25.4779 21.3236 26.8125C21.3236 27.9779 20.8158 28.6875 19.8132 28.6875H17.9902Z" fill="url(#paint0_radial_390_7486)"/>
<rect x="1" y="0.5" width="47" height="47" rx="7.5" stroke="white" stroke-opacity="0.11"/>
<defs>
<radialGradient id="paint0_radial_390_7486" cx="0" cy="0" r="1" gradientUnits="userSpaceOnUse" gradientTransform="translate(33.4899 17.5767) rotate(142.51) scale(23.1197 25.2736)">
<stop stop-color="#A648A8"/>
<stop offset="1" stop-color="#5C4EF7"/>
</radialGradient>
</defs>
</svg>
