<svg width="48" height="48" viewBox="0 0 48 48" fill="none" xmlns="http://www.w3.org/2000/svg">
<path d="M48 24C48 10.7452 37.2548 0 24 0C10.7452 0 0 10.7452 0 24C0 37.2548 10.7452 48 24 48C37.2548 48 48 37.2548 48 24Z" fill="url(#paint0_radial_175_545)"/>
<path d="M38 6H10C7.79086 6 6 7.79086 6 10V38C6 40.2091 7.79086 42 10 42H38C40.2091 42 42 40.2091 42 38V10C42 7.79086 40.2091 6 38 6Z" fill="white"/>
<path d="M10 6C7.797 6 6 7.79688 6 10V38C6 40.2031 7.797 42 10 42H38C40.203 42 42 40.2031 42 38V10C42 7.79688 40.203 6 38 6H10ZM12.812 15.375H18C22.602 15.375 23.375 18.2031 23.375 20C23.375 22.6016 21.586 23.4219 21.188 23.625C21.586 23.8281 23.625 24.375 23.625 27.375C23.828 30.9766 21.578 32.375 18.375 32.375H12.812V15.375ZM26.812 15.375H34.188V17.375H26.812V15.375ZM16.188 18.1875V22.375H18C19.203 22.375 20 21.9766 20 20.375C20 18.9766 19.398 18.1875 18 18.1875H16.188ZM31.188 19.625C33.984 19.625 36 21.2109 36 25.8125V27.1875H29.188C29.188 27.7891 29.227 30 31.625 30C33.227 30 33.977 29.2109 34.375 28.8125L35.812 30.8125C35.609 31.0156 34.227 32.625 31.625 32.625C28.625 32.625 26.188 31.0156 26.188 26.8125V25.8125C26.188 21.2109 28.586 19.625 31.188 19.625ZM30.812 22.1875C30.211 22.1875 29 22.4141 29 24.8125H32.375C32.375 24.8125 32.812 22.1875 30.812 22.1875ZM16.188 25V29.625H18.375C19.578 29.625 20.188 28.7734 20.188 27.375C20.391 25.7734 19.828 25 18.625 25H16.188Z" fill="url(#paint1_radial_175_545)"/>
<defs>
<radialGradient id="paint0_radial_175_545" cx="0" cy="0" r="1" gradientUnits="userSpaceOnUse" gradientTransform="translate(5.172 10.08) rotate(51.0552) scale(54.3104 148.348)">
<stop stop-color="#19BFB5"/>
<stop offset="1" stop-color="#23B4D3"/>
</radialGradient>
<radialGradient id="paint1_radial_175_545" cx="0" cy="0" r="1" gradientUnits="userSpaceOnUse" gradientTransform="translate(9.879 13.56) rotate(51.0552) scale(40.7328 111.261)">
<stop stop-color="#19BFB5"/>
<stop offset="1" stop-color="#23B4D3"/>
</radialGradient>
</defs>
</svg>
