<svg width="48" height="48" viewBox="0 0 48 48" fill="none" xmlns="http://www.w3.org/2000/svg">
<path d="M48 24C48 10.7452 37.2548 0 24 0C10.7452 0 0 10.7452 0 24C0 37.2548 10.7452 48 24 48C37.2548 48 48 37.2548 48 24Z" fill="url(#paint0_radial_175_539)"/>
<path d="M42 24C42 14.0589 33.9411 6 24 6C14.0589 6 6 14.0589 6 24C6 33.9411 14.0589 42 24 42C33.9411 42 42 33.9411 42 24Z" fill="white"/>
<path fill-rule="evenodd" clip-rule="evenodd" d="M10.7288 44C8.0633 42.2277 5.7723 39.9367 4 37.2712V10.7288C5.7723 8.06326 8.0633 5.7723 10.7288 4H37.271C39.937 5.7723 42.228 8.06326 44 10.7288V37.2712C42.228 39.9367 39.937 42.2277 37.271 44H10.7288ZM28.9375 19.3125C28.9375 9.96094 26.5156 8 24.5 8C20.25 8 20.25 19.0078 20.25 19.125C20.25 20.4062 20.2969 21.625 20.375 22.75C19.7812 22.5312 19.1094 22.375 18.375 22.375C14.0078 22.375 12 26.0703 12 30C12 33.6953 14.0859 38 18.8125 38C21.0469 38 22.9766 36.5703 24.5 34.4375C25.8438 35.8047 27.2031 36.3125 28.25 36.3125C31.5703 36.3125 33.773 30.5078 34.562 28C34.797 27.2109 34.367 26.2969 33.562 26.0625C32.773 25.8047 31.9453 26.25 31.6875 27.0625C30.7578 30.0078 29.0234 33.0938 28.25 33.25C27.6797 33.25 26.8906 32.75 26.0625 31.625C27.9609 27.6328 28.9375 22.6562 28.9375 19.3125ZM23.25 19.125C23.25 15.6484 23.9922 12.3594 24.625 11.25C25.1016 11.9609 25.9375 14.2109 25.9375 19.3125C25.9375 22.0156 25.2812 25.1719 24.3125 27.9375C23.6797 25.7812 23.25 22.8828 23.25 19.125ZM15.0625 30.5625C15.0625 30.3594 15.1094 25.9766 17.8125 25.4375C17.9307 25.4118 18.0488 25.4199 18.1737 25.4285C18.2387 25.4329 18.3055 25.4375 18.375 25.4375C19.6562 25.4375 20.625 26.375 20.625 26.375L20.6303 26.3817C20.6924 26.4593 20.7763 26.5643 20.875 26.625C21.2891 28.7422 21.9297 30.4062 22.625 31.75C21.4766 33.6875 20.1328 34.9375 18.8125 34.9375C15.3906 34.9375 15.0625 31.8828 15.0625 30.5625Z" fill="url(#paint1_radial_175_539)"/>
<defs>
<radialGradient id="paint0_radial_175_539" cx="0" cy="0" r="1" gradientUnits="userSpaceOnUse" gradientTransform="translate(5.1724 10.08) rotate(51.0552) scale(54.3104 148.348)">
<stop stop-color="#19BFB5"/>
<stop offset="1" stop-color="#23B4D3"/>
</radialGradient>
<radialGradient id="paint1_radial_175_539" cx="0" cy="0" r="1" gradientUnits="userSpaceOnUse" gradientTransform="translate(8.3103 12.4) rotate(51.0552) scale(45.2586 123.624)">
<stop stop-color="#19BFB5"/>
<stop offset="1" stop-color="#23B4D3"/>
</radialGradient>
</defs>
</svg>
