<svg width="49" height="48" viewBox="0 0 49 48" fill="none" xmlns="http://www.w3.org/2000/svg">
<g filter="url(#filter0_b_390_7477)">
<rect x="0.5" width="48" height="48" rx="8" fill="#151522"/>
<g clip-path="url(#clip0_390_7477)">
<rect x="13.5" y="13" width="22" height="23" rx="3" fill="url(#paint0_radial_390_7477)"/>
<path fill-rule="evenodd" clip-rule="evenodd" d="M17.3787 38C14.9254 36.612 12.888 34.5746 11.5 32.1213V16.8787C12.888 14.4254 14.9254 12.388 17.3787 11H32.6213C35.0746 12.388 37.112 14.4254 38.5 16.8787V32.1213C37.112 34.5746 35.0746 36.612 32.6213 38H17.3787ZM28.3328 21.3359C28.3328 15.0236 26.698 13.7 25.3375 13.7C22.4688 13.7 22.4688 21.1303 22.4688 21.2094C22.4688 22.0742 22.5004 22.8969 22.5531 23.6562C22.1523 23.5086 21.6988 23.4031 21.2031 23.4031C18.2553 23.4031 16.9 25.8975 16.9 28.55C16.9 31.0443 18.308 33.95 21.4984 33.95C23.0066 33.95 24.3092 32.985 25.3375 31.5453C26.2445 32.4682 27.1621 32.8109 27.8688 32.8109C30.11 32.8109 31.5971 28.8928 32.1297 27.2C32.2879 26.6674 31.9979 26.0504 31.4547 25.8922C30.9221 25.7182 30.3631 26.0188 30.1891 26.5672C29.5615 28.5553 28.3908 30.6383 27.8688 30.7437C27.4838 30.7437 26.9512 30.4062 26.3922 29.6469C27.6736 26.9521 28.3328 23.593 28.3328 21.3359ZM24.4938 21.2094C24.4938 18.8627 24.9947 16.6426 25.4219 15.8938C25.7436 16.3736 26.3078 17.8924 26.3078 21.3359C26.3078 23.1605 25.8648 25.291 25.2109 27.1578C24.7838 25.7023 24.4938 23.7459 24.4938 21.2094ZM18.9672 28.9297C18.9672 28.7926 18.9988 25.8342 20.8234 25.4703C20.9032 25.453 20.983 25.4584 21.0672 25.4642C21.1111 25.4672 21.1562 25.4703 21.2031 25.4703C22.068 25.4703 22.7219 26.1031 22.7219 26.1031L22.7255 26.1076C22.7673 26.16 22.824 26.2309 22.8906 26.2719C23.1701 27.701 23.6025 28.8242 24.0719 29.7313C23.2967 31.0391 22.3896 31.8828 21.4984 31.8828C19.1887 31.8828 18.9672 29.8209 18.9672 28.9297Z" fill="#151522"/>
</g>
<rect x="1" y="0.5" width="47" height="47" rx="7.5" stroke="white" stroke-opacity="0.11"/>
</g>
<defs>
<filter id="filter0_b_390_7477" x="-49.5" y="-50" width="148" height="148" filterUnits="userSpaceOnUse" color-interpolation-filters="sRGB">
<feFlood flood-opacity="0" result="BackgroundImageFix"/>
<feGaussianBlur in="BackgroundImage" stdDeviation="25"/>
<feComposite in2="SourceAlpha" operator="in" result="effect1_backgroundBlur_390_7477"/>
<feBlend mode="normal" in="SourceGraphic" in2="effect1_backgroundBlur_390_7477" result="shape"/>
</filter>
<radialGradient id="paint0_radial_390_7477" cx="0" cy="0" r="1" gradientUnits="userSpaceOnUse" gradientTransform="translate(34.3493 14.2227) rotate(132.852) scale(30.71 34.6608)">
<stop stop-color="#A648A8"/>
<stop offset="1" stop-color="#5C4EF7"/>
</radialGradient>
<clipPath id="clip0_390_7477">
<rect width="22" height="22" fill="white" transform="translate(13.5 13)"/>
</clipPath>
</defs>
</svg>
