<svg width="49" height="48" viewBox="0 0 49 48" fill="none" xmlns="http://www.w3.org/2000/svg">
<rect x="0.5" width="48" height="48" rx="8" fill="#151522"/>
<rect x="14.5" y="13" width="21" height="21" rx="10.5" fill="url(#paint0_radial_390_7483)"/>
<path d="M23.4766 12.0778C18.3052 12.6399 14.1456 16.7995 13.5835 21.8585C12.909 27.4796 16.3941 32.3137 21.3406 33.8876V31.3019C21.3406 31.3019 20.8909 31.4143 20.3288 31.4143C18.7549 31.4143 18.0804 30.0652 17.968 29.2783C17.8556 28.8286 17.6307 28.4913 17.2934 28.1541C16.9562 28.0417 16.8438 28.0417 16.8438 27.9292C16.8438 27.7044 17.181 27.7044 17.2934 27.7044C17.968 27.7044 18.5301 28.4913 18.7549 28.8286C19.317 29.728 19.9916 29.9528 20.3288 29.9528C20.7785 29.9528 21.1158 29.8404 21.3406 29.728C21.453 28.941 21.7903 28.1541 22.4648 27.7044C19.8791 27.1423 17.968 25.6808 17.968 23.2075C17.968 21.9709 18.5301 20.7343 19.317 19.8349C19.2046 19.6101 19.0922 19.0479 19.0922 18.261C19.0922 17.8113 19.0922 17.1368 19.4295 16.4623C19.4295 16.4623 21.0034 16.4623 22.5773 17.9237C23.1394 17.6989 23.9263 17.5865 24.7133 17.5865C25.5002 17.5865 26.2872 17.6989 26.9617 17.9237C28.4232 16.4623 30.1095 16.4623 30.1095 16.4623C30.3343 17.1368 30.3343 17.8113 30.3343 18.261C30.3343 19.1604 30.2219 19.6101 30.1095 19.8349C30.8964 20.7343 31.4585 21.8585 31.4585 23.2075C31.4585 25.6808 29.5474 27.1423 26.9617 27.7044C27.6362 28.2665 28.0859 29.2783 28.0859 30.2901V34C32.6952 32.5385 35.9554 28.2665 35.9554 23.32C35.9554 16.5747 30.2219 11.2909 23.4766 12.0778Z" fill="#151522"/>
<rect x="1" y="0.5" width="47" height="47" rx="7.5" stroke="white" stroke-opacity="0.11"/>
<defs>
<radialGradient id="paint0_radial_390_7483" cx="0" cy="0" r="1" gradientUnits="userSpaceOnUse" gradientTransform="translate(34.4016 14.1164) rotate(134.123) scale(28.6361 32.396)">
<stop stop-color="#A648A8"/>
<stop offset="1" stop-color="#5C4EF7"/>
</radialGradient>
</defs>
</svg>
