<svg width="48" height="48" viewBox="0 0 48 48" fill="none" xmlns="http://www.w3.org/2000/svg">
<path d="M48 24C48 10.7452 37.2548 0 24 0C10.7452 0 0 10.7452 0 24C0 37.2548 10.7452 48 24 48C37.2548 48 48 37.2548 48 24Z" fill="url(#paint0_radial_175_538)"/>
<path d="M43 24C43 13.5066 34.4934 5 24 5C13.5066 5 5 13.5066 5 24V25C5 35.4934 13.5066 44 24 44C34.4934 44 43 35.4934 43 25V24Z" fill="white"/>
<path d="M21.8004 4.19995C12.6004 5.19995 5.20037 12.6 4.20037 21.6C3.00037 31.6 9.20037 40.2 18.0004 43V38.4C18.0004 38.4 17.2004 38.6 16.2004 38.6C13.4004 38.6 12.2004 36.2 12.0004 34.8C11.8004 34 11.4004 33.4 10.8004 32.8C10.2004 32.6 10.0004 32.6 10.0004 32.4C10.0004 32 10.6004 32 10.8004 32C12.0004 32 13.0004 33.4 13.4004 34C14.4004 35.6 15.6004 36 16.2004 36C17.0004 36 17.6004 35.8 18.0004 35.6C18.2004 34.2 18.8004 32.8 20.0004 32C15.4004 31 12.0004 28.4 12.0004 24C12.0004 21.8 13.0004 19.6 14.4004 18C14.2004 17.6 14.0004 16.6 14.0004 15.2C14.0004 14.4 14.0004 13.2 14.6004 12C14.6004 12 17.4004 12 20.2004 14.6C21.2004 14.2 22.6004 14 24.0004 14C25.4004 14 26.8004 14.2 28.0004 14.6C30.6004 12 33.6004 12 33.6004 12C34.0004 13.2 34.0004 14.4 34.0004 15.2C34.0004 16.8 33.8004 17.6 33.6004 18C35.0004 19.6 36.0004 21.6 36.0004 24C36.0004 28.4 32.6004 31 28.0004 32C29.2004 33 30.0004 34.8 30.0004 36.6V43.2C38.2004 40.6 44.0004 33 44.0004 24.2C44.0004 12.2 33.8004 2.79995 21.8004 4.19995Z" fill="url(#paint1_radial_175_538)"/>
<defs>
<radialGradient id="paint0_radial_175_538" cx="0" cy="0" r="1" gradientUnits="userSpaceOnUse" gradientTransform="translate(5.172 10.08) rotate(51.0552) scale(54.3104 148.348)">
<stop stop-color="#19BFB5"/>
<stop offset="1" stop-color="#23B4D3"/>
</radialGradient>
<radialGradient id="paint1_radial_175_538" cx="0" cy="0" r="1" gradientUnits="userSpaceOnUse" gradientTransform="translate(8.35737 12.2806) rotate(50.4801) scale(44.6482 122.457)">
<stop stop-color="#19BFB5"/>
<stop offset="1" stop-color="#23B4D3"/>
</radialGradient>
</defs>
</svg>
