<svg width="49" height="48" viewBox="0 0 49 48" fill="none" xmlns="http://www.w3.org/2000/svg">
<rect x="0.5" width="48" height="48" rx="8" fill="#151522"/>
<path fill-rule="evenodd" clip-rule="evenodd" d="M13.4544 34H18.5004V20H13.4544V34ZM13.3164 15.034C13.3164 16.406 14.3464 17.434 15.8884 17.434C17.6024 17.434 18.6304 16.406 18.6304 15.034C18.6304 13.662 17.6004 12.634 16.0584 12.634C14.3444 12.634 13.3164 13.662 13.3164 15.034ZM31.6164 34H36.5004V26.348C36.5004 21.954 34.5464 20 32.1044 20C29.6624 20 28.3604 20.814 27.7104 21.954V20H22.6644V34H27.7104V26.348C27.7104 24.07 29.3384 23.744 29.8264 23.744C30.3144 23.744 31.6164 24.232 31.6164 26.348V34Z" fill="url(#paint0_radial_390_7474)"/>
<rect x="1" y="0.5" width="47" height="47" rx="7.5" stroke="white" stroke-opacity="0.11"/>
<defs>
<radialGradient id="paint0_radial_390_7474" cx="0" cy="0" r="1" gradientUnits="userSpaceOnUse" gradientTransform="translate(35.2877 13.7699) rotate(136.462) scale(30.3621 34.32)">
<stop stop-color="#A648A8"/>
<stop offset="1" stop-color="#5C4EF7"/>
</radialGradient>
</defs>
</svg>
