<svg width="46" height="36" viewBox="0 0 46 36" fill="none" xmlns="http://www.w3.org/2000/svg">
<path d="M36 14C36 15.1046 35.1941 16 34.2 16C33.2059 16 33 15.1046 33 14C33 12.8954 33.8059 12 34.8 12C35.7941 12 36 12.8954 36 14Z" fill="white"/>
<path d="M33.512 26.48C34.496 26.48 35.264 26.768 35.816 27.344C36.368 27.912 36.644 28.732 36.644 29.804V35H35.084V29.864C35.084 29.2 34.908 28.7 34.556 28.364C34.212 28.02 33.76 27.848 33.2 27.848C32.576 27.848 32.076 28.024 31.7 28.376C31.332 28.728 31.148 29.268 31.148 29.996V35H29.588V29.864C29.588 29.192 29.424 28.688 29.096 28.352C28.776 28.016 28.336 27.848 27.776 27.848C27.144 27.848 26.636 28.028 26.252 28.388C25.876 28.74 25.688 29.276 25.688 29.996V35H24.128V26.6H25.64V27.704C25.896 27.312 26.244 27.012 26.684 26.804C27.124 26.588 27.632 26.48 28.208 26.48C28.8 26.48 29.316 26.592 29.756 26.816C30.196 27.04 30.528 27.356 30.752 27.764C31.032 27.356 31.412 27.04 31.892 26.816C32.38 26.592 32.92 26.48 33.512 26.48ZM41.7273 33.812C42.4233 33.812 43.0033 33.58 43.4673 33.116L44.2593 34.04C43.9793 34.384 43.6193 34.644 43.1793 34.82C42.7393 34.996 42.2433 35.084 41.6913 35.084C40.9873 35.084 40.3673 34.944 39.8313 34.664C39.2953 34.384 38.8793 33.996 38.5833 33.5C38.2953 32.996 38.1513 32.428 38.1513 31.796C38.1513 31.172 38.2913 30.612 38.5713 30.116C38.8593 29.612 39.2513 29.22 39.7473 28.94C40.2513 28.66 40.8193 28.52 41.4513 28.52C42.0513 28.52 42.5953 28.652 43.0833 28.916C43.5793 29.172 43.9713 29.544 44.2593 30.032C44.5473 30.512 44.6913 31.076 44.6913 31.724L39.7833 32.684C39.9353 33.052 40.1793 33.332 40.5153 33.524C40.8513 33.716 41.2553 33.812 41.7273 33.812ZM41.4513 29.72C40.8993 29.72 40.4513 29.9 40.1073 30.26C39.7713 30.62 39.6033 31.104 39.6033 31.712V31.724L43.2273 31.028C43.1233 30.636 42.9113 30.32 42.5913 30.08C42.2793 29.84 41.8993 29.72 41.4513 29.72Z" fill="white"/>
<path fill-rule="evenodd" clip-rule="evenodd" d="M2 0C2 0 1 0 0.5 0.500018C0.0857938 0.914239 0 1.5 0 1.5V10.5C0 14.0899 2.91015 17 6.5 17C10.0899 17 13 14.0899 13 10.5V1.5C13 1.5 13 1 12.5 0.5C12 0 11.5 0 11 0V10.5C11 12.9853 8.98528 15 6.5 15C4.01472 15 2 12.9853 2 10.5V0Z" fill="white"/>
<path fill-rule="evenodd" clip-rule="evenodd" d="M18 8C18 6.89543 17.1046 6 16 6V17.7846L6 21.6568C6.39885 22.6868 7.5572 23.1985 8.58724 22.7997L29.0787 14.8651C28.6798 13.835 27.5215 13.3233 26.4914 13.7222L18 17.0102V8Z" fill="white"/>
<path fill-rule="evenodd" clip-rule="evenodd" d="M17.0002 23.9293L7.72239 27.5218C7.32354 26.4918 7.83523 25.3334 8.86527 24.9346L29.3567 17C29.7556 18.03 29.2439 19.1884 28.2138 19.5872L19.0002 23.1549V35C17.8957 35 17.0002 34.1046 17.0002 33V23.9293Z" fill="url(#paint0_radial_112_492)"/>
<defs>
<radialGradient id="paint0_radial_112_492" cx="0" cy="0" r="1" gradientUnits="userSpaceOnUse" gradientTransform="translate(9.9474 20.78) rotate(45.4756) scale(22.2175 62.0597)">
<stop stop-color="#19BFB5"/>
<stop offset="1" stop-color="#23B4D3"/>
</radialGradient>
</defs>
</svg>
