<svg width="58" height="58" viewBox="0 0 58 58" fill="none" xmlns="http://www.w3.org/2000/svg">
<path d="M16.1637 18.9225L25.551 13.2125L24.4048 22.3156L15.0176 28.0256L16.1637 18.9225Z" fill="url(#paint0_radial_317_7560)"/>
<path d="M41.2753 16.1255L38.3607 13L38.1655 18.195L35.2412 20.141L33.4001 28.7562C33.2011 29.7234 32.9166 30.662 32.5468 31.5722C32.1771 32.4824 31.722 33.3074 31.1815 34.0469C30.6411 34.758 30.0295 35.3269 29.3468 35.7535C28.6641 36.1517 27.8961 36.3509 27.0428 36.3509C26.218 36.3509 25.5495 36.1517 25.0375 35.7535C24.5255 35.3554 24.1557 34.8149 23.9282 34.1322C23.7006 33.4495 23.5868 32.6674 23.5868 31.7855C23.5868 31.302 23.6153 30.8184 23.6722 30.3349C23.7291 29.8229 23.8144 29.2967 23.9282 28.7562L24.1989 27.4891L15.0977 33.5457C15.1227 35.4198 15.4636 37.1228 16.1202 38.6549C16.8313 40.2194 17.9406 41.4567 19.4482 42.3669C20.4725 42.9739 21.7057 43.3785 23.1475 43.5807C25.1222 43.9878 27.2341 43.8175 29.109 43.3591C29.937 43.1789 30.7274 42.9335 31.4801 42.6229C31.9872 42.4089 32.4766 42.1718 32.9484 41.9116C34.6483 41.0234 36.2125 39.8275 37.3681 38.3418C37.6738 37.9487 37.9674 37.5135 38.2482 37.0456C38.7725 36.2948 39.2471 35.4943 39.6721 34.6442C40.5825 32.8237 41.2651 30.861 41.7201 28.7562L42.8112 23.6505L47.4355 22.7314L43.8332 18.8684L44.9406 13.6865L41.2753 16.1255Z" fill="white"/>
<rect x="1" y="1" width="56" height="56" rx="7" stroke="white" stroke-opacity="0.1" stroke-width="2"/>
<defs>
<radialGradient id="paint0_radial_317_7560" cx="0" cy="0" r="1" gradientUnits="userSpaceOnUse" gradientTransform="translate(25 14) rotate(124.592) scale(17.6139 18.6347)">
<stop stop-color="#A648A8"/>
<stop offset="1" stop-color="#5C4EF7"/>
</radialGradient>
</defs>
</svg>
